<mxfile host="app.diagrams.net" modified="2023-09-14T09:49:24.863Z" agent="Mozilla/5.0 (Windows NT 10.0; Win64; x64) AppleWebKit/537.36 (KHTML, like Gecko) Chrome/116.0.0.0 Safari/537.36" etag="0vMj1kSjeOZBduTO9igS" version="21.7.2" type="device">
  <diagram name="Page-1" id="9niJJaZxBFk08AUPgmxx">
    <mxGraphModel dx="2074" dy="1156" grid="1" gridSize="10" guides="1" tooltips="1" connect="1" arrows="1" fold="1" page="1" pageScale="1" pageWidth="4681" pageHeight="3300" math="0" shadow="0">
      <root>
        <mxCell id="0" />
        <mxCell id="1" parent="0" />
        <mxCell id="uxSQiTV4G-Z_Gih1Y8zg-1" value="" style="rounded=1;whiteSpace=wrap;html=1;fillColor=#d5e8d4;strokeColor=#82b366;" vertex="1" parent="1">
          <mxGeometry x="600" y="240" width="440" height="860" as="geometry" />
        </mxCell>
        <mxCell id="uxSQiTV4G-Z_Gih1Y8zg-3" value="" style="rounded=1;whiteSpace=wrap;html=1;" vertex="1" parent="1">
          <mxGeometry x="630" y="300" width="390" height="380" as="geometry" />
        </mxCell>
        <mxCell id="uxSQiTV4G-Z_Gih1Y8zg-4" value="GadgetManager::AActor" style="text;html=1;strokeColor=none;fillColor=none;align=center;verticalAlign=middle;whiteSpace=wrap;rounded=0;fontSize=18;fontStyle=1" vertex="1" parent="1">
          <mxGeometry x="790" y="250" width="60" height="30" as="geometry" />
        </mxCell>
        <mxCell id="uxSQiTV4G-Z_Gih1Y8zg-5" value="Properties" style="text;html=1;strokeColor=none;fillColor=none;align=center;verticalAlign=middle;whiteSpace=wrap;rounded=0;fontSize=14;" vertex="1" parent="1">
          <mxGeometry x="670" y="310" width="60" height="30" as="geometry" />
        </mxCell>
        <mxCell id="uxSQiTV4G-Z_Gih1Y8zg-6" value="" style="rounded=1;whiteSpace=wrap;html=1;" vertex="1" parent="1">
          <mxGeometry x="625" y="700" width="390" height="380" as="geometry" />
        </mxCell>
        <mxCell id="uxSQiTV4G-Z_Gih1Y8zg-7" value="Methods" style="text;html=1;strokeColor=none;fillColor=none;align=center;verticalAlign=middle;whiteSpace=wrap;rounded=0;fontSize=14;" vertex="1" parent="1">
          <mxGeometry x="670" y="710" width="60" height="30" as="geometry" />
        </mxCell>
        <mxCell id="uxSQiTV4G-Z_Gih1Y8zg-8" value="ReconGadgetClass&amp;nbsp;" style="text;html=1;strokeColor=none;fillColor=none;align=left;verticalAlign=top;whiteSpace=wrap;rounded=0;fontSize=13;" vertex="1" parent="1">
          <mxGeometry x="660" y="340" width="340" height="320" as="geometry" />
        </mxCell>
      </root>
    </mxGraphModel>
  </diagram>
</mxfile>
